<svg width="18" height="18" viewBox="0 0 18 18" fill="none" xmlns="http://www.w3.org/2000/svg">
<path d="M4.242 15.3593C4.13432 15.4529 4.00215 15.5139 3.86103 15.535C3.7199 15.5562 3.57567 15.5366 3.44527 15.4787C3.31486 15.4207 3.2037 15.3267 3.12483 15.2078C3.04596 15.0889 3.00266 14.9499 3 14.8073V13.125C2.60218 13.125 2.22064 12.967 1.93934 12.6857C1.65804 12.4044 1.5 12.0228 1.5 11.625V6.375C1.5 5.97718 1.65804 5.59564 1.93934 5.31434C2.22064 5.03304 2.60218 4.875 3 4.875H11.25C11.6478 4.875 12.0294 5.03304 12.3107 5.31434C12.592 5.59564 12.75 5.97718 12.75 6.375V11.625C12.75 12.0228 12.592 12.4044 12.3107 12.6857C12.0294 12.967 11.6478 13.125 11.25 13.125H7.50225L4.242 15.3593ZM13.5 9.38775C13.4976 9.47998 13.4976 9.57227 13.5 9.6645V9.387C13.5037 9.30675 13.5045 8.30175 13.503 6.37275C13.5024 5.7764 13.2651 5.20468 12.8432 4.78321C12.4213 4.36174 11.8493 4.125 11.253 4.125H5.25V3.375C5.25 2.97718 5.40804 2.59564 5.68934 2.31434C5.97064 2.03304 6.35218 1.875 6.75 1.875H15C15.3978 1.875 15.7794 2.03304 16.0607 2.31434C16.342 2.59564 16.5 2.97718 16.5 3.375V8.625C16.5 9.02282 16.342 9.40436 16.0607 9.68566C15.7794 9.96696 15.3978 10.125 15 10.125V11.8073C14.9973 11.9499 14.954 12.0889 14.8752 12.2078C14.7963 12.3267 14.6851 12.4207 14.5547 12.4787C14.4243 12.5366 14.2801 12.5562 14.139 12.535C13.9978 12.5139 13.8657 12.4529 13.758 12.3593L13.5 12.1823V9.38775Z" fill="#F8F8F8"/>
</svg>
