<svg width="18" height="18" viewBox="0 0 18 18" fill="none" xmlns="http://www.w3.org/2000/svg">
<path d="M9.75001 12H5.25001C5.05109 12 4.86033 12.079 4.71968 12.2197C4.57902 12.3603 4.50001 12.5511 4.50001 12.75C4.50001 12.9489 4.57902 13.1397 4.71968 13.2803C4.86033 13.421 5.05109 13.5 5.25001 13.5H9.75001C9.94892 13.5 10.1397 13.421 10.2803 13.2803C10.421 13.1397 10.5 12.9489 10.5 12.75C10.5 12.5511 10.421 12.3603 10.2803 12.2197C10.1397 12.079 9.94892 12 9.75001 12ZM6.75001 7.5H8.25001C8.44892 7.5 8.63968 7.42098 8.78034 7.28033C8.92099 7.13968 9.00001 6.94891 9.00001 6.75C9.00001 6.55109 8.92099 6.36032 8.78034 6.21967C8.63968 6.07902 8.44892 6 8.25001 6H6.75001C6.55109 6 6.36033 6.07902 6.21968 6.21967C6.07902 6.36032 6.00001 6.55109 6.00001 6.75C6.00001 6.94891 6.07902 7.13968 6.21968 7.28033C6.36033 7.42098 6.55109 7.5 6.75001 7.5ZM15.75 9H13.5V2.25C13.5005 2.11784 13.4661 1.98789 13.4003 1.87331C13.3344 1.75872 13.2395 1.66358 13.125 1.5975C13.011 1.53167 12.8817 1.49702 12.75 1.49702C12.6184 1.49702 12.489 1.53167 12.375 1.5975L10.125 2.8875L7.87501 1.5975C7.76099 1.53167 7.63166 1.49702 7.50001 1.49702C7.36835 1.49702 7.23902 1.53167 7.12501 1.5975L4.87501 2.8875L2.62501 1.5975C2.51099 1.53167 2.38166 1.49702 2.25001 1.49702C2.11835 1.49702 1.98902 1.53167 1.87501 1.5975C1.76055 1.66358 1.66559 1.75872 1.59974 1.87331C1.53389 1.98789 1.49948 2.11784 1.50001 2.25V14.25C1.50001 14.8467 1.73706 15.419 2.15902 15.841C2.58097 16.2629 3.15327 16.5 3.75001 16.5H14.25C14.8467 16.5 15.419 16.2629 15.841 15.841C16.263 15.419 16.5 14.8467 16.5 14.25V9.75C16.5 9.55109 16.421 9.36032 16.2803 9.21967C16.1397 9.07902 15.9489 9 15.75 9ZM3.75001 15C3.55109 15 3.36033 14.921 3.21968 14.7803C3.07902 14.6397 3.00001 14.4489 3.00001 14.25V3.5475L4.50001 4.4025C4.61576 4.46296 4.74441 4.49453 4.87501 4.49453C5.0056 4.49453 5.13425 4.46296 5.25001 4.4025L7.50001 3.1125L9.75001 4.4025C9.86576 4.46296 9.99441 4.49453 10.125 4.49453C10.2556 4.49453 10.3843 4.46296 10.5 4.4025L12 3.5475V14.25C12.002 14.5059 12.0477 14.7595 12.135 15H3.75001ZM15 14.25C15 14.4489 14.921 14.6397 14.7803 14.7803C14.6397 14.921 14.4489 15 14.25 15C14.0511 15 13.8603 14.921 13.7197 14.7803C13.579 14.6397 13.5 14.4489 13.5 14.25V10.5H15V14.25ZM9.75001 9H5.25001C5.05109 9 4.86033 9.07902 4.71968 9.21967C4.57902 9.36032 4.50001 9.55109 4.50001 9.75C4.50001 9.94891 4.57902 10.1397 4.71968 10.2803C4.86033 10.421 5.05109 10.5 5.25001 10.5H9.75001C9.94892 10.5 10.1397 10.421 10.2803 10.2803C10.421 10.1397 10.5 9.94891 10.5 9.75C10.5 9.55109 10.421 9.36032 10.2803 9.21967C10.1397 9.07902 9.94892 9 9.75001 9Z" fill="#F8F8F8"/>
</svg>
