<svg width="15" height="15" viewBox="0 0 15 15" fill="none" xmlns="http://www.w3.org/2000/svg">
<path d="M15 0H0V4.5H0.75V12.75C0.75 13.1478 0.908035 13.5294 1.18934 13.8107C1.47064 14.092 1.85218 14.25 2.25 14.25H12.75C13.1478 14.25 13.5294 14.092 13.8107 13.8107C14.092 13.5294 14.25 13.1478 14.25 12.75V4.5H15V0ZM1.5 1.5H13.5V3H1.5V1.5ZM12.75 12.75H2.25V4.5H12.75V12.75ZM5.25 6H9.75C9.75 6.39782 9.59196 6.77936 9.31066 7.06066C9.02936 7.34196 8.64782 7.5 8.25 7.5H6.75C6.35218 7.5 5.97064 7.34196 5.68934 7.06066C5.40804 6.77936 5.25 6.39782 5.25 6Z" fill="#F8F8F8"/>
</svg>
