<svg width="18" height="18" viewBox="0 0 18 18" fill="none" xmlns="http://www.w3.org/2000/svg">
<path d="M9 12.75C8.7875 12.75 8.60925 12.678 8.46525 12.534C8.32125 12.39 8.2495 12.212 8.25 12C8.25 11.7875 8.322 11.6093 8.466 11.4653C8.61 11.3212 8.788 11.2495 9 11.25C9.2125 11.25 9.39075 11.322 9.53475 11.466C9.67875 11.61 9.7505 11.788 9.75 12C9.75 12.2125 9.678 12.3907 9.534 12.5347C9.39 12.6787 9.212 12.7505 9 12.75ZM8.25 9.75V2.25H9.75V9.75H8.25ZM3.75 15.75C3.3375 15.75 2.98425 15.603 2.69025 15.309C2.39625 15.015 2.2495 14.662 2.25 14.25V12H3.75V14.25H14.25V12H15.75V14.25C15.75 14.6625 15.603 15.0157 15.309 15.3097C15.015 15.6038 14.662 15.7505 14.25 15.75H3.75Z" fill="#F8F8F8"/>
</svg>
