<svg width="18" height="18" viewBox="0 0 18 18" fill="none" xmlns="http://www.w3.org/2000/svg">
<path fill-rule="evenodd" clip-rule="evenodd" d="M10.7092 1.614C10.4317 1.5 10.0792 1.5 9.37499 1.5C8.67074 1.5 8.31824 1.5 8.04074 1.614C7.67133 1.76566 7.37728 2.05782 7.22324 2.42625C7.15274 2.5935 7.12574 2.78925 7.11449 3.0735C7.10949 3.27945 7.05204 3.48073 6.94758 3.65829C6.84311 3.83585 6.69509 3.98384 6.51749 4.08825C6.33655 4.18883 6.13315 4.24211 5.92614 4.24316C5.71912 4.24421 5.51519 4.19299 5.33324 4.09425C5.07974 3.96075 4.89599 3.88725 4.71449 3.86325C4.31741 3.81111 3.9158 3.91785 3.59699 4.16025C3.35849 4.34175 3.18224 4.64475 2.83049 5.25C2.47799 5.85525 2.30249 6.1575 2.26274 6.45375C2.21024 6.84825 2.31824 7.24725 2.56274 7.563C2.67374 7.707 2.83049 7.82775 3.07274 7.97925C3.43049 8.202 3.65999 8.5815 3.65999 9C3.65999 9.4185 3.43049 9.798 3.07349 10.02C2.83049 10.1722 2.67374 10.293 2.56199 10.437C2.4413 10.593 2.35272 10.7713 2.30136 10.9617C2.24999 11.1521 2.23687 11.3508 2.26274 11.5463C2.30249 11.8418 2.47799 12.1447 2.83049 12.75C3.18299 13.3553 3.35849 13.6575 3.59699 13.8397C3.91499 14.082 4.31699 14.1885 4.71449 14.1368C4.89599 14.1128 5.07974 14.0393 5.33324 13.9058C5.51529 13.8069 5.71935 13.7556 5.92651 13.7566C6.13367 13.7577 6.33721 13.811 6.51824 13.9117C6.88274 14.1217 7.09874 14.508 7.11449 14.9265C7.12574 15.2115 7.15274 15.4065 7.22324 15.5737C7.37624 15.9412 7.67024 16.2337 8.04074 16.386C8.31824 16.5 8.67074 16.5 9.37499 16.5C10.0792 16.5 10.4317 16.5 10.7092 16.386C11.0787 16.2343 11.3727 15.9422 11.5267 15.5737C11.5972 15.4065 11.6242 15.2115 11.6355 14.9265C11.6505 14.508 11.8672 14.121 12.2325 13.9117C12.4134 13.8112 12.6168 13.7579 12.8238 13.7568C13.0309 13.7558 13.2348 13.807 13.4167 13.9058C13.6702 14.0393 13.854 14.1128 14.0355 14.1368C14.433 14.1893 14.835 14.082 15.153 13.8397C15.3915 13.6582 15.5677 13.3553 15.9195 12.75C16.272 12.1447 16.4475 11.8425 16.4872 11.5463C16.513 11.3507 16.4998 11.152 16.4483 10.9616C16.3968 10.7712 16.3081 10.5929 16.1872 10.437C16.0762 10.293 15.9195 10.1722 15.6772 10.0208C15.3195 9.798 15.09 9.4185 15.09 9C15.09 8.5815 15.3195 8.202 15.6765 7.98C15.9195 7.82775 16.0762 7.707 16.188 7.563C16.3087 7.40704 16.3973 7.22872 16.4486 7.03832C16.5 6.84793 16.5131 6.64924 16.4872 6.45375C16.4475 6.15825 16.272 5.85525 15.9195 5.25C15.567 4.64475 15.3915 4.3425 15.153 4.16025C14.8342 3.91785 14.4326 3.81111 14.0355 3.86325C13.854 3.88725 13.6702 3.96075 13.4167 4.09425C13.2347 4.19312 13.0306 4.24441 12.8235 4.24336C12.6163 4.24231 12.4128 4.18896 12.2317 4.08825C12.0543 3.98375 11.9064 3.83572 11.8021 3.65816C11.6978 3.48061 11.6404 3.27938 11.6355 3.0735C11.6242 2.7885 11.5972 2.5935 11.5267 2.42625C11.4505 2.2438 11.3391 2.07816 11.1988 1.93879C11.0585 1.79942 10.8922 1.68906 10.7092 1.614ZM9.37499 11.25C10.6275 11.25 11.6422 10.2428 11.6422 9C11.6422 7.75725 10.6267 6.75 9.37499 6.75C8.12249 6.75 7.10774 7.75725 7.10774 9C7.10774 10.2428 8.12324 11.25 9.37499 11.25Z" fill="#F8F8F8"/>
</svg>
